<?xml version="1.0" encoding="utf-8"?>
<!-- Generator: Adobe Illustrator 28.0.0, SVG Export Plug-In . SVG Version: 6.00 Build 0)  -->
<svg version="1.1" id="Layer_1" xmlns="http://www.w3.org/2000/svg" xmlns:xlink="http://www.w3.org/1999/xlink" x="0px" y="0px"
	 viewBox="0 0 121 24" style="enable-background:new 0 0 121 24;" xml:space="preserve">
<style type="text/css">
	.st0{fill:#122C29;}
</style>
<g>
	<path class="st0" d="M57.6,20.4l-0.3-20c0-0.2,0.2-0.4,0.4-0.4l20,0.3c0.4,0,0.5,0.6,0.1,0.7l-13,3.1c-0.2,0.1-0.4,0.3-0.2,0.6
		l3.7,5.7c0.2,0.3-0.2,0.7-0.5,0.5L62,7.2c-0.2-0.1-0.5,0-0.6,0.2l-3.1,13C58.2,20.9,57.6,20.8,57.6,20.4z"/>
	<path class="st0" d="M2.2,20.9V9.8h7.4v1.6H4.2v2.8h4.2v1.5H4.2v3.6h5.5v1.6C9.7,20.9,2.2,20.9,2.2,20.9z"/>
	<path class="st0" d="M11.8,20.9v-7.2h-1.2v-1.4h1.2v-0.5c0-0.7,0.2-1.2,0.6-1.7c0.4-0.4,1.1-0.7,2-0.7c0.2,0,0.5,0,0.7,0v1.4
		c-0.1,0-0.3,0-0.5,0c-0.4,0-0.6,0.1-0.8,0.3c-0.1,0.2-0.2,0.4-0.2,0.7v0.5H15v1.4h-1.4v7.2H11.8z M17.1,20.9v-7.2h-1.2v-1.4h1.2
		v-0.5c0-0.7,0.2-1.2,0.6-1.7c0.4-0.4,1.1-0.7,2-0.7c0.2,0,0.5,0,0.7,0v1.4c-0.1,0-0.3,0-0.5,0c-0.4,0-0.6,0.1-0.8,0.3
		c-0.1,0.2-0.2,0.4-0.2,0.7v0.5h1.4v1.4H19v7.2H17.1z"/>
	<path class="st0" d="M25.4,21.2c-1.3,0-2.3-0.4-3-1.2c-0.7-0.8-1-1.9-1-3.3s0.3-2.5,1-3.3s1.7-1.2,3-1.2c1.2,0,2.2,0.4,2.8,1.2
		c0.7,0.8,1,1.9,1,3.4v0.5h-5.9c0,0.8,0.3,1.4,0.6,1.9c0.4,0.5,0.9,0.7,1.5,0.7c0.5,0,0.9-0.1,1.2-0.4c0.3-0.3,0.5-0.7,0.6-1.1H29
		c-0.1,0.6-0.3,1.1-0.6,1.5c-0.3,0.4-0.7,0.8-1.2,1.1C26.8,21,26.2,21.2,25.4,21.2z M23.3,15.8h4c0-0.7-0.2-1.3-0.5-1.7
		s-0.8-0.6-1.4-0.6s-1.1,0.2-1.4,0.6C23.6,14.5,23.4,15.1,23.3,15.8z"/>
	<path class="st0" d="M30.9,20.9V9.5h1.9v6.2h0.7l2.6-3.4h2.1v0.1l-3.1,3.9l3.4,4.5v0.1h-2.3l-2.7-3.7h-0.7v3.7H30.9z"/>
	<path class="st0" d="M41,20.9c-0.2-0.3-0.4-0.6-0.5-0.9c-0.1-0.4-0.2-0.9-0.2-1.6v-4.6h-1.2v-1.4h1.2v-2.1h1.9v2.1h1.4v1.4h-1.4
		v4.4c0,0.8,0.1,1.4,0.3,1.7c0.2,0.4,0.4,0.7,0.6,1V21H41V20.9z"/>
	<path class="st0" d="M46.2,11.3c-0.4,0-0.6-0.1-0.8-0.3s-0.3-0.4-0.3-0.8c0-0.3,0.1-0.6,0.3-0.8s0.5-0.3,0.8-0.3
		c0.4,0,0.6,0.1,0.8,0.3s0.3,0.5,0.3,0.8S47.2,10.8,47,11S46.6,11.3,46.2,11.3z M45.2,20.9v-8.6h1.9v8.6H45.2z"/>
	<path class="st0" d="M50,20.9v-7.2h-1.2v-1.4H50v-0.5c0-0.7,0.2-1.2,0.6-1.7c0.4-0.4,1.1-0.7,2-0.7c0.2,0,0.5,0,0.7,0v1.4
		c-0.1,0-0.3,0-0.5,0c-0.4,0-0.6,0.1-0.8,0.3c-0.1,0.2-0.2,0.4-0.2,0.7v0.5h1.4v1.4h-1.4v7.2H50z"/>
	<path class="st0" d="M72,20.9V9.8h3.8c1.9,0,3.4,0.5,4.2,1.5c0.9,1,1.3,2.3,1.3,4.1s-0.4,3.1-1.3,4.1S77.7,21,75.8,21H72V20.9z
		 M74,19.3h1.7c1.3,0,2.2-0.3,2.8-0.9c0.6-0.6,0.9-1.6,0.9-3.1s-0.3-2.4-0.9-3.1c-0.6-0.6-1.5-0.9-2.8-0.9H74V19.3z"/>
	<path class="st0" d="M84,11.3c-0.4,0-0.6-0.1-0.8-0.3c-0.2-0.2-0.3-0.4-0.3-0.8c0-0.3,0.1-0.6,0.3-0.8c0.2-0.2,0.5-0.3,0.8-0.3
		c0.4,0,0.6,0.1,0.8,0.3c0.2,0.2,0.3,0.5,0.3,0.8S85,10.8,84.8,11S84.4,11.3,84,11.3z M83,20.9v-8.6h2v8.6H83z"/>
	<path class="st0" d="M90.7,24c-0.7,0-1.3-0.1-1.7-0.3s-0.8-0.4-1.1-0.7c-0.3-0.3-0.5-0.6-0.6-0.9s-0.2-0.6-0.2-0.8H89
		c0,0.3,0.2,0.6,0.5,0.8c0.3,0.2,0.7,0.4,1.3,0.4c1.3,0,2-0.7,2-2.2v-1h-0.3c-0.1,0.4-0.4,0.7-0.8,1c-0.4,0.2-0.8,0.4-1.5,0.4
		c-1.1,0-1.9-0.4-2.5-1.2c-0.6-0.8-0.9-1.8-0.9-3.1s0.3-2.3,0.9-3.1s1.4-1.2,2.6-1.2c0.6,0,1.1,0.1,1.5,0.4c0.4,0.2,0.6,0.6,0.8,0.9
		h0.3v-1.1h1.8v8c0,1.2-0.3,2.1-1,2.7C92.9,23.7,92,24,90.7,24z M90.5,19.3c0.6,0,1.2-0.3,1.5-0.8c0.4-0.5,0.5-1.2,0.5-2.1
		c0-0.8-0.2-1.5-0.5-2c-0.4-0.5-0.9-0.8-1.5-0.8s-1.1,0.2-1.4,0.7s-0.5,1.2-0.5,2.1c0,0.9,0.2,1.6,0.5,2.1
		C89.5,19,89.9,19.3,90.5,19.3z"/>
	<path class="st0" d="M97.7,11.3c-0.4,0-0.6-0.1-0.8-0.3c-0.2-0.2-0.3-0.4-0.3-0.8c0-0.3,0.1-0.6,0.3-0.8c0.2-0.2,0.5-0.3,0.8-0.3
		c0.4,0,0.6,0.1,0.8,0.3c0.2,0.2,0.3,0.5,0.3,0.8s-0.1,0.6-0.3,0.8C98.4,11.2,98.1,11.3,97.7,11.3z M96.8,20.9v-8.6h1.9v8.6H96.8z"
		/>
	<path class="st0" d="M102.2,20.9c-0.2-0.3-0.4-0.6-0.5-0.9c-0.1-0.4-0.2-0.9-0.2-1.6v-4.6h-1.2v-1.4h1.2v-2.1h1.9v2.1h1.4v1.4h-1.4
		v4.4c0,0.8,0.1,1.4,0.3,1.7c0.2,0.4,0.4,0.7,0.6,1V21h-2.1V20.9z"/>
	<path class="st0" d="M109.3,21.1c-0.8,0-1.4-0.2-1.9-0.6s-0.9-0.9-1.2-1.6c-0.3-0.7-0.4-1.5-0.4-2.4c0-1.3,0.3-2.4,0.9-3.2
		s1.5-1.2,2.6-1.2c0.6,0,1.1,0.1,1.5,0.4c0.4,0.3,0.7,0.6,0.8,0.9h0.3v-1.1h1.8v8.6H112v-1.1h-0.3c-0.2,0.4-0.5,0.7-0.8,0.9
		C110.4,21,109.9,21.1,109.3,21.1z M109.7,19.7c0.6,0,1.2-0.3,1.6-0.8s0.6-1.3,0.6-2.2c0-0.9-0.2-1.6-0.6-2.2
		c-0.4-0.6-0.9-0.8-1.6-0.8c-0.6,0-1.1,0.3-1.4,0.8s-0.5,1.3-0.5,2.3s0.2,1.7,0.5,2.2C108.6,19.4,109.1,19.7,109.7,19.7z"/>
	<path class="st0" d="M116.7,20.9c-0.2-0.3-0.4-0.6-0.5-1S116,19,116,18.3V9.5h1.9v8.7c0,0.7,0.1,1.3,0.2,1.7c0.2,0.4,0.4,0.7,0.6,1
		V21h-2V20.9z"/>
</g>
</svg>
